# Blender 3.5.0
# www.blender.org
mtllib Pillar.mtl
o Pillar
v 0.700000 1.100000 -0.700000
v 0.700000 1.100000 0.700000
v -0.700000 1.100000 -0.700000
v -0.700000 1.100000 0.700000
v 0.250000 1.240000 0.433013
v 0.000000 4.500000 0.500000
v 0.433013 1.240000 0.250000
v -0.250000 4.500000 0.433013
v 0.500000 1.240000 0.000000
v -0.433012 4.500000 0.250000
v 0.433013 1.240000 -0.250000
v -0.500000 4.500000 0.000000
v 0.250000 1.240000 -0.433013
v -0.433012 4.500000 -0.250000
v 0.000000 1.240000 -0.500000
v -0.250000 4.500000 -0.433013
v -0.250000 1.240000 -0.433013
v 0.000000 4.500000 -0.500000
v -0.433012 1.240000 -0.250000
v 0.250000 4.500000 -0.433013
v -0.500000 1.240000 0.000000
v 0.433013 4.500000 -0.250000
v -0.433012 1.240000 0.250000
v 0.500000 4.500000 0.000000
v -0.250000 1.240000 0.433013
v 0.433013 4.500000 0.250000
v 0.000000 1.240000 0.500000
v 0.250000 4.500000 0.433013
v 0.000000 1.150000 0.500000
v -0.250000 1.150000 0.433013
v -0.433012 1.150000 0.250000
v -0.500000 1.150000 0.000000
v -0.433012 1.150000 -0.250000
v -0.250000 1.150000 -0.433013
v 0.000000 1.150000 -0.500000
v 0.250000 1.150000 -0.433013
v 0.433013 1.150000 -0.250000
v 0.500000 1.150000 0.000000
v 0.433013 1.150000 0.250000
v 0.250000 1.150000 0.433013
v 0.000000 1.080000 0.650000
v -0.325000 1.080000 0.562917
v -0.562916 1.080000 0.325000
v -0.650000 1.080000 0.000000
v -0.562916 1.080000 -0.325000
v -0.325000 1.080000 -0.562917
v 0.000000 1.080000 -0.650000
v 0.325000 1.080000 -0.562917
v 0.562917 1.080000 -0.325000
v 0.650000 1.080000 0.000000
v 0.562917 1.080000 0.325000
v 0.325000 1.080000 0.562917
v 0.250000 4.414500 0.433013
v 0.000000 4.414500 0.500000
v 0.433013 4.414500 0.250000
v 0.500000 4.414500 0.000000
v 0.433013 4.414500 -0.250000
v 0.250000 4.414500 -0.433013
v 0.000000 4.414500 -0.500000
v -0.250000 4.414500 -0.433013
v -0.433012 4.414500 -0.250000
v -0.500000 4.414500 0.000000
v -0.433012 4.414500 0.250000
v -0.250000 4.414500 0.433013
v 0.225000 4.383275 0.389711
v 0.225000 1.271225 0.389711
v 0.389712 4.383275 0.225000
v 0.389712 1.271225 0.225000
v 0.450000 4.383275 0.000000
v 0.450000 1.271225 0.000000
v 0.389712 4.383275 -0.225000
v 0.389712 1.271225 -0.225000
v 0.225000 4.383275 -0.389711
v 0.225000 1.271225 -0.389711
v 0.000000 4.383275 -0.450000
v 0.000000 1.271225 -0.450000
v -0.225000 4.383275 -0.389711
v -0.225000 1.271225 -0.389711
v -0.389711 4.383275 -0.225000
v -0.389711 1.271225 -0.225000
v -0.450000 4.383275 0.000000
v -0.450000 1.271225 0.000000
v -0.389711 4.383275 0.225000
v -0.389711 1.271225 0.225000
v -0.225000 4.383275 0.389711
v -0.225000 1.271225 0.389711
v 0.000000 1.271225 0.450000
v 0.000000 4.383275 0.450000
v 0.630000 4.470000 -0.630000
v 0.630000 4.470000 0.630000
v -0.630000 4.470000 -0.630000
v -0.630000 4.470000 0.630000
v 0.700000 -0.078047 0.700000
v 0.700000 -0.078047 -0.700000
v 0.700000 1.021953 -0.700000
v 0.700000 1.021953 0.700000
v -0.700000 -0.078047 0.700000
v -0.700000 1.021953 0.700000
v -0.700000 -0.078047 -0.700000
v -0.700000 1.021953 -0.700000
v 0.776489 -0.198111 0.776488
v 0.776489 -0.198111 -0.776488
v 0.776489 1.022085 -0.776488
v 0.776489 1.022085 0.776488
v -0.776488 -0.198111 0.776488
v -0.776488 1.022085 0.776488
v -0.776488 -0.198111 -0.776488
v -0.776488 1.022085 -0.776488
v 0.776489 -0.327162 0.776488
v 0.776489 -0.327162 -0.776488
v 0.776489 0.893034 -0.776488
v 0.776489 0.893034 0.776488
v -0.776488 -0.327162 0.776488
v -0.776488 0.893034 0.776488
v -0.776488 -0.327162 -0.776488
v -0.776488 0.893034 -0.776488
v 0.709987 0.840783 -0.709987
v 0.709987 0.840783 0.709987
v -0.709986 0.840783 0.709987
v -0.709986 0.840783 -0.709987
v 0.630000 4.600906 0.630000
v 0.630000 4.600906 -0.630000
v 0.630000 5.510907 -0.630000
v 0.630000 5.510907 0.630000
v -0.630000 4.600906 0.630000
v -0.630000 5.510907 0.630000
v -0.630000 4.600906 -0.630000
v -0.630000 5.510907 -0.630000
v 0.679522 4.587629 0.679522
v 0.679522 4.587629 -0.679522
v 0.679522 5.624185 -0.679522
v 0.679522 5.624185 0.679522
v -0.679521 4.587629 0.679522
v -0.679521 5.624185 0.679522
v -0.679521 4.587629 -0.679522
v -0.679521 5.624185 -0.679522
v 0.679522 5.078529 0.679522
v 0.679522 5.078529 -0.679522
v 0.679522 6.115086 -0.679522
v 0.679522 6.115086 0.679522
v -0.679521 5.078529 0.679522
v -0.679521 6.115086 0.679522
v -0.679521 5.078529 -0.679522
v -0.679521 6.115086 -0.679522
v 0.622829 5.150970 0.622828
v 0.622829 5.150970 -0.622828
v -0.622828 5.150970 0.622828
v -0.622828 5.150970 -0.622828
vn 1.0000 -0.0000 -0.0000
vn -1.0000 -0.0000 -0.0000
vn -0.0000 1.0000 -0.0000
vn -0.0000 -0.0000 1.0000
vn -0.2588 -0.0000 0.9659
vn -0.7071 -0.0000 0.7071
vn -0.9659 -0.0000 0.2588
vn -0.9659 -0.0000 -0.2588
vn -0.7071 -0.0000 -0.7071
vn -0.2588 -0.0000 -0.9659
vn -0.0000 -0.0000 -1.0000
vn 0.2588 -0.0000 -0.9659
vn 0.7071 -0.0000 -0.7071
vn 0.9659 -0.0000 -0.2588
vn 0.9659 -0.0000 0.2588
vn 0.7071 -0.0000 0.7071
vn 0.2588 -0.0000 0.9659
vn 0.5000 -0.0000 0.8660
vn -0.2114 0.9062 0.3662
vn -0.3662 0.9062 0.2114
vn 0.3662 0.9062 -0.2114
vn 0.4229 0.9062 -0.0000
vn -0.2114 0.9062 -0.3662
vn -0.0000 0.9062 -0.4229
vn -0.4229 0.9062 -0.0000
vn 0.3662 0.9062 0.2114
vn 0.2114 0.9062 -0.3662
vn -0.3662 0.9062 -0.2114
vn 0.2114 0.9062 0.3662
vn -0.0000 0.9062 0.4229
vn 0.5000 -0.0000 -0.8660
vn -0.5000 -0.0000 -0.8660
vn -0.5000 -0.0000 0.8660
vn 0.4587 0.8482 -0.2648
vn 0.2648 0.8482 -0.4587
vn 0.5297 -0.8482 -0.0000
vn 0.4587 -0.8482 0.2648
vn -0.2648 0.8482 0.4587
vn -0.0000 0.8482 0.5297
vn -0.4587 -0.8482 0.2648
vn -0.5297 -0.8482 -0.0000
vn 0.5297 0.8482 -0.0000
vn 0.2648 -0.8482 0.4587
vn -0.4587 0.8482 0.2648
vn -0.4587 -0.8482 -0.2648
vn 0.4587 0.8482 0.2648
vn -0.0000 -0.8482 0.5297
vn -0.5297 0.8482 -0.0000
vn -0.2648 -0.8482 -0.4587
vn 0.8660 -0.0000 0.5000
vn 0.8660 -0.0000 -0.5000
vn -0.8660 -0.0000 -0.5000
vn -0.8660 -0.0000 0.5000
vn -0.2648 -0.8482 0.4587
vn 0.4587 -0.8482 -0.2648
vn -0.0000 0.8482 -0.5297
vn 0.2648 -0.8482 -0.4587
vn -0.2648 0.8482 -0.4587
vn -0.0000 -0.8482 -0.5297
vn -0.4587 0.8482 -0.2648
vn 0.2648 0.8482 0.4587
vn -0.0000 -1.0000 -0.0000
vn -0.8434 0.5373 -0.0000
vn -0.0000 0.5373 -0.8434
vn -0.0009 1.0000 0.0009
vn -0.0009 1.0000 -0.0009
vn 0.0009 1.0000 -0.0009
vn -0.0000 0.5373 0.8434
vn 0.8434 0.5373 -0.0000
vn 0.0009 1.0000 0.0009
vn -0.0000 -0.7863 -0.6178
vn 0.9999 -0.0109 -0.0000
vn -0.0000 -0.0109 0.9999
vn -0.9999 -0.0109 -0.0000
vn -0.0000 -0.0109 -0.9999
vn -0.6178 -0.7863 -0.0000
vn -0.0000 -0.7863 0.6178
vn 0.6178 -0.7863 -0.0000
vn 0.9716 -0.2365 -0.0000
vn 0.9843 -0.1763 -0.0000
vn 0.1317 -0.9825 -0.1317
vn -0.1317 -0.9825 -0.1317
vn -0.9716 -0.2365 -0.0000
vn -0.9843 -0.1763 -0.0000
vn -0.1317 -0.9825 0.1317
vn 0.1317 -0.9825 0.1317
vn -0.0000 -0.1763 0.9843
vn -0.0000 -0.2365 -0.9716
vn -0.0000 -0.1763 -0.9843
vn -0.0000 -0.2365 0.9716
vn -0.7875 0.6163 -0.0000
vn 0.7875 0.6163 -0.0000
vn 0.9998 -0.0199 -0.0000
vn -0.0000 -0.0199 0.9998
vn -0.9998 -0.0199 -0.0000
vn -0.0000 -0.0199 -0.9998
vn -0.0000 0.6163 -0.7875
vn -0.0000 0.6163 0.7875
vt 2.345896 2.552420
vt 2.505860 -4.343791
vt -4.229506 5.698067
vt 2.345896 5.683877
vt 2.505860 -7.500001
vt 2.170001 2.551856
vt -4.405400 5.698067
vt -0.650350 -4.343791
vt -4.229506 2.566609
vt -4.405400 2.566609
vt -0.650349 -7.500001
vt 2.170001 -0.604353
vt 0.916384 2.897102
vt -0.883042 4.427144
vt -7.215311 6.864195
vt -0.873500 5.404022
vt -0.875558 3.966175
vt -6.923565 6.358876
vt -0.873500 4.840412
vt -0.875558 3.388103
vt -6.418247 6.067131
vt -0.875558 4.427817
vt -0.868072 4.427816
vt -0.883042 2.847823
vt 1.205196 4.449528
vt -5.834757 6.067131
vt -0.875558 3.887536
vt 1.212680 3.988559
vt -5.329439 6.358876
vt -0.875557 3.309464
vt 1.212680 3.410487
vt -5.037693 6.864194
vt -0.868072 2.848495
vt 1.430482 4.450200
vt 1.205197 2.870207
vt 1.415512 4.449528
vt -5.037693 7.447685
vt 1.422997 3.909919
vt 1.422998 3.988559
vt -5.329439 7.953003
vt 1.422998 3.331847
vt 1.422998 3.410487
vt -5.834756 8.244748
vt 1.430482 2.870878
vt 1.630657 4.450200
vt 1.415513 2.870207
vt 0.916384 4.436913
vt -6.418247 8.244748
vt 1.623172 3.909919
vt 0.914327 4.024318
vt -6.923565 7.953003
vt 1.623173 3.331847
vt 0.914327 3.460708
vt -7.215311 7.447685
vt 1.630657 2.870878
vt -0.875558 5.967628
vt 5.673092 -6.376295
vt 0.711433 3.460338
vt 5.673092 -5.792804
vt 0.711433 4.023948
vt 5.964838 -5.287486
vt 1.212681 2.870914
vt 0.713490 4.436543
vt 6.470155 -4.995741
vt 1.220165 3.411195
vt 7.053647 -4.995741
vt 1.220165 3.989266
vt 7.558964 -5.287486
vt 1.002363 2.870914
vt 1.212680 4.450235
vt 7.850709 -5.792804
vt 1.009848 3.411195
vt 7.850709 -6.376295
vt 1.009848 3.989266
vt 7.558964 -6.881613
vt -1.085874 2.848531
vt 1.002363 4.450235
vt 7.053647 -7.173358
vt -1.078389 3.388811
vt 6.470155 -7.173358
vt -1.078389 3.966883
vt 0.713490 2.896731
vt 5.964838 -6.881613
vt -1.085875 4.427852
vt 5.346449 -6.463819
vt 5.346449 -5.705281
vt 5.725718 -5.048368
vt 6.382632 -4.669098
vt 7.141170 -4.669098
vt 7.798083 -5.048367
vt 8.177352 -5.705280
vt 8.177352 -6.463819
vt 7.798083 -7.120732
vt 7.141170 -7.500001
vt 6.382632 -7.500001
vt 5.725719 -7.120732
vt 1.823346 2.870206
vt -0.682809 5.967979
vt -3.422480 8.208255
vt -0.680752 5.404374
vt -3.714226 7.702937
vt 1.815864 3.331175
vt -2.917162 8.500001
vt 1.815863 3.909246
vt -2.333672 8.500001
vt 1.623171 2.870206
vt 1.823347 4.449528
vt -1.828354 8.208255
vt 1.615689 3.331175
vt -1.536608 7.702937
vt 1.615687 3.909246
vt -1.536608 7.119447
vt -0.675383 2.847822
vt 1.623172 4.449528
vt -1.828354 6.614128
vt -0.682866 3.308791
vt -2.333672 6.322383
vt -0.682867 3.886864
vt -2.917163 6.322383
vt -0.682808 4.428169
vt -0.675382 4.427144
vt -3.422480 6.614128
vt -0.680752 4.840764
vt -3.714226 7.119447
vt -3.342774 8.128549
vt -0.674394 -0.601825
vt 5.208198 -4.046530
vt -0.674394 6.413929
vt 5.208198 2.967119
vt -7.106430 6.893369
vt -2.887988 8.391120
vt 4.793353 -4.054713
vt 4.793353 2.958936
vt -6.843859 6.438583
vt 4.273091 -4.056529
vt -2.362846 8.391120
vt -6.389073 6.176012
vt 4.273091 2.957120
vt 3.786818 -4.051490
vt 6.629579 -4.046530
vt -1.908060 8.128549
vt -5.863931 6.176012
vt 3.786818 2.962159
vt 6.629579 2.967119
vt 6.214733 -4.054713
vt -1.645489 7.673762
vt 6.214733 2.958936
vt -5.409145 6.438582
vt 5.694471 -4.056529
vt -1.645489 7.148621
vt 5.694471 2.957120
vt -5.146574 6.893369
vt 5.208198 -4.051490
vt 3.786818 -4.046530
vt -1.908060 6.693835
vt 5.208198 2.962159
vt 3.786818 2.967119
vt -5.146574 7.418510
vt -2.362846 6.431264
vt 3.371971 -4.054713
vt 3.371971 2.958935
vt -5.409145 7.873297
vt -2.887988 6.431264
vt 2.851711 -4.056529
vt 2.851711 2.957120
vt -5.863931 8.135868
vt 2.365437 -4.051490
vt 0.711433 -0.604353
vt -3.342774 6.693835
vt -6.389073 8.135868
vt 2.365437 2.962159
vt 0.711433 6.411400
vt 0.340102 -0.601825
vt -3.605345 7.148621
vt -6.843859 7.873297
vt 0.340102 6.413929
vt -0.167146 6.414854
vt -7.106430 7.418510
vt -0.167146 -0.600899
vt -3.605345 7.673762
vt 1.874888 5.054546
vt 2.505861 -4.659412
vt -4.151435 2.321426
vt 2.170000 2.236236
vt 2.505861 -7.500001
vt -4.151435 5.139738
vt 1.874888 2.236235
vt 5.346448 -4.659412
vt -4.151435 2.320481
vt 2.170000 -0.604353
vt 5.346449 -7.500001
vt -4.151435 -0.497830
vt 5.550799 6.293007
vt -6.652536 2.738483
vt 5.550800 3.161550
vt 2.922448 6.293007
vt 2.170001 2.551856
vt -4.405400 5.697503
vt -3.886664 -0.670268
vt 2.170001 5.683313
vt 2.345950 2.551856
vt -3.886664 -3.826478
vt -6.652537 5.894692
vt -3.157215 3.042253
vt -4.581295 2.566046
vt 2.345950 -0.604353
vt -7.042872 -3.826478
vt -3.157214 6.173711
vt 2.922448 3.161550
vt -4.581294 5.697503
vt -4.405400 2.566046
vt -7.042873 -0.670268
vt -6.924380 2.566046
vt 5.284630 6.441679
vt 2.656279 6.441679
vt 5.284630 2.968051
vt 1.293205 -0.603421
vt 1.874888 2.870207
vt -3.714226 -0.497830
vt -3.714226 -3.998915
vt 1.293205 2.870207
vt 0.711433 2.896732
vt -3.423384 2.848755
vt -6.924380 6.067131
vt 0.711433 -0.604353
vt 1.584046 -0.603421
vt -7.215310 -3.998916
vt 2.656279 2.968051
vt -3.423384 6.322383
vt 1.584046 2.870207
vt 1.874888 -0.603421
vt -7.215311 -0.497831
vt -7.215311 2.566046
vt 4.993788 6.440747
vt 2.365438 6.440747
vt 4.993788 2.967119
vt 1.002363 -0.604353
vt 1.584046 2.869275
vt -7.215311 -3.998916
vt 1.002363 2.869275
vt 1.002363 2.896732
vt -7.215310 -7.500001
vt -3.714226 2.847823
vt -7.215311 6.067131
vt 1.002363 -0.604353
vt 1.293205 -0.604353
vt -3.714226 -7.500001
vt 2.365437 2.967119
vt -3.714225 6.321451
vt 1.293205 2.869275
vt 1.584046 -0.604353
vt -3.714226 -3.998916
vt 7.622139 3.143031
vt 4.993788 6.319164
vt -7.065387 -4.148839
vt 7.622139 6.319164
vt -4.581295 2.715969
vt -7.065387 -7.350078
vt -4.581295 5.917208
vt -1.085875 3.023735
vt -3.864149 -7.350077
vt -1.085875 6.199868
vt 4.993788 3.143031
vt -3.864149 -4.148839
vt 1.874887 2.236236
vt -3.856411 5.140683
vt -7.103667 -0.386187
vt 2.169911 5.055491
vt -3.856411 2.322371
vt -7.103667 2.454402
vt -0.549668 -2.682691
vt -0.771202 0.760459
vt 2.268629 -2.691718
vt -0.761993 -5.417817
vt 1.874887 -0.604353
vt -3.856411 -0.496885
vt -4.263079 -0.386187
vt -3.602582 -5.417817
vt -3.589500 -2.682691
vt 2.169911 2.237180
vt -3.856411 2.321426
vt -4.263079 2.454402
vt -0.771202 -2.691718
vt -3.589500 0.769486
vt -7.215310 -0.497830
vt -0.650350 -7.500001
vt 2.365437 -0.614089
vt -0.674394 2.838087
vt -7.215311 2.566045
vt -0.674394 -0.604353
vt -0.674394 -2.940447
vt -0.674394 0.501992
vt -0.650350 -5.163207
vt 2.365437 -2.950184
vt -3.714226 -0.604353
vt -4.151435 -0.497830
vt -3.714225 -7.500001
vt -3.714226 -2.940447
vt -3.714225 -5.163207
vt -3.714226 2.847823
vt -0.674394 -0.614089
vt -4.151435 2.566046
vt -0.674394 -2.950184
vt -3.714226 0.511728
vt 2.365437 -1.720435
vt -0.650350 -6.393323
vt -0.674394 -1.710699
vt -0.674394 1.731741
vt -0.674394 -4.046793
vt -0.674394 -0.604353
vt -0.650350 -4.056529
vt 2.365437 -4.056529
vt -3.714226 -1.710699
vt -3.714225 -6.393323
vt -3.714226 -4.046793
vt -3.714225 -4.056529
vt -0.674394 -1.720435
vt -3.714226 1.741478
vt -0.674394 -4.056529
vt -3.714226 -0.594617
vt 2.254609 -1.880067
vt -0.778161 -6.229143
vt -0.531605 -1.871143
vt -0.785221 1.572109
vt -3.571437 -1.871143
vt -3.586414 -6.229143
vt -0.785222 -1.880067
vt -3.571437 1.581033
s 1
usemtl YellowSandstone
f 4/11/3 2/5/3 1/2/3 3/8/3
f 30/59/19 31/61/20 43/87/20 42/86/19
f 37/75/21 38/78/22 50/94/22 49/93/21
f 34/68/23 35/71/24 47/91/24 46/90/23
f 31/61/20 32/64/25 44/88/25 43/87/20
f 38/78/22 39/80/26 51/95/26 50/94/22
f 35/71/24 36/73/27 48/92/27 47/91/24
f 32/64/25 33/66/28 45/89/28 44/88/25
f 39/80/26 40/83/29 52/96/29 51/95/26
f 29/57/30 30/59/19 42/86/19 41/85/30
f 36/73/27 37/75/21 49/93/21 48/92/27
f 33/66/28 34/68/23 46/90/23 45/89/28
f 40/83/29 29/57/30 41/85/30 52/96/29
f 66/128/17 65/126/17 88/179/17 87/177/17
f 68/133/50 67/132/50 65/127/16 66/129/16
f 70/138/15 69/135/15 67/132/50 68/133/50
f 72/143/51 71/139/51 69/135/14 70/138/14
f 74/147/13 73/145/13 71/140/51 72/144/51
f 76/151/12 75/149/12 73/145/12 74/147/12
f 78/156/10 77/153/10 75/149/10 76/151/10
f 80/161/52 79/160/52 77/154/9 78/157/9
f 82/165/8 81/164/8 79/160/52 80/161/52
f 84/171/53 83/167/53 81/164/7 82/165/7
f 86/176/6 85/173/6 83/168/53 84/172/53
f 87/177/5 88/179/5 85/173/5 86/176/5
f 92/190/4 90/184/4 121/265/4 125/275/4
f 89/181/11 91/187/11 127/280/11 122/268/11
f 90/185/62 92/191/62 91/188/62 89/182/62
f 99/208/63 107/229/63 105/223/63 97/204/63
f 94/196/64 102/215/64 107/228/64 99/209/64
f 103/217/1 104/221/1 112/240/1 111/237/1
f 104/222/4 106/225/4 114/245/4 112/241/4
f 106/226/2 108/230/2 116/250/2 114/246/2
f 108/231/11 103/218/11 111/238/11 116/251/11
f 97/203/68 105/224/68 101/213/68 93/194/68
f 93/193/69 101/214/69 102/216/69 94/195/69
f 116/252/71 111/239/71 117/255/71 120/264/71
f 94/195/72 117/253/72 118/256/72 93/193/72
f 93/194/73 118/257/73 119/259/73 97/203/73
f 97/204/74 119/260/74 120/262/74 99/208/74
f 99/209/75 120/263/75 117/254/75 94/196/75
f 114/247/76 116/252/76 120/264/76 119/261/76
f 112/242/77 114/247/77 119/261/77 118/258/77
f 111/239/78 112/242/78 118/258/78 117/255/78
f 90/186/1 89/183/1 122/269/1 121/266/1
f 91/189/2 92/192/2 125/276/2 127/281/2
f 134/298/84 142/315/2 144/319/2 136/303/84
f 130/288/11 135/300/11 143/318/11 138/308/11
f 132/293/87 140/311/4 142/316/4 134/299/87
f 135/301/2 133/295/2 141/313/2 143/317/2
f 133/297/4 129/286/4 137/306/4 141/314/4
f 131/291/80 139/309/1 140/312/1 132/294/80
f 136/304/89 144/320/11 139/310/11 131/292/89
f 129/287/1 130/290/1 138/307/1 137/305/1
usemtl RedSandstone
f 1/1/1 2/4/1 96/200/1 95/197/1
f 4/10/2 3/7/2 100/210/2 98/205/2
f 54/100/4 6/16/4 8/19/5 64/123/5
f 64/123/6 8/19/6 10/22/6 63/120/6
f 63/121/7 10/23/7 12/27/2 62/118/2
f 62/118/2 12/27/2 14/30/8 61/116/8
f 61/116/9 14/30/9 16/33/9 60/113/9
f 60/114/10 16/34/10 18/38/11 59/111/11
f 59/111/11 18/38/11 20/41/12 58/109/12
f 58/109/13 20/41/13 22/44/13 57/106/13
f 57/107/14 22/45/14 24/49/1 56/104/1
f 56/104/1 24/49/1 26/52/15 55/102/15
f 55/102/16 26/52/16 28/55/16 53/97/16
f 53/98/17 28/56/17 6/16/4 54/100/4
f 40/82/18 5/13/18 27/53/17 29/58/17
f 39/81/16 7/17/16 5/14/18 40/84/18
f 38/79/15 9/20/15 7/17/15 39/81/15
f 37/76/14 11/24/14 9/20/14 38/79/14
f 36/74/31 13/28/31 11/25/13 37/77/13
f 35/72/12 15/31/12 13/28/31 36/74/31
f 34/69/32 17/35/32 15/31/10 35/72/10
f 33/67/9 19/39/9 17/36/32 34/70/32
f 32/65/8 21/42/8 19/39/8 33/67/8
f 31/62/7 23/46/7 21/42/7 32/65/7
f 30/60/33 25/50/33 23/47/6 31/63/6
f 29/58/5 27/53/5 25/50/33 30/60/33
f 11/26/34 13/29/35 74/148/35 72/142/34
f 56/105/36 55/103/37 67/131/37 69/136/36
f 25/51/38 27/54/39 87/178/39 86/175/38
f 63/122/40 62/119/41 81/163/41 83/169/40
f 9/21/42 11/26/34 72/142/34 70/137/42
f 55/103/37 53/99/43 65/125/43 67/131/37
f 23/48/44 25/51/38 86/175/38 84/170/44
f 62/119/41 61/117/45 79/159/45 81/163/41
f 7/18/46 9/21/42 70/137/42 68/134/46
f 53/99/43 54/101/47 88/180/47 65/125/43
f 21/43/48 23/48/44 84/170/44 82/166/48
f 61/117/45 60/115/49 77/155/49 79/159/45
f 64/124/54 63/122/40 83/169/40 85/174/54
f 57/108/55 56/105/36 69/136/36 71/141/55
f 13/29/35 15/32/56 76/152/56 74/148/35
f 54/101/47 64/124/54 85/174/54 88/180/47
f 58/110/57 57/108/55 71/141/55 73/146/57
f 15/32/56 17/37/58 78/158/58 76/152/56
f 59/112/59 58/110/57 73/146/57 75/150/59
f 17/37/58 19/40/60 80/162/60 78/158/58
f 27/54/39 5/15/61 66/130/61 87/178/39
f 60/115/49 59/112/59 75/150/59 77/155/49
f 19/40/60 21/43/48 82/166/48 80/162/60
f 5/15/61 7/18/46 68/134/46 66/130/61
f 3/9/11 1/3/11 95/198/11 100/211/11
f 2/6/4 4/12/4 98/206/4 96/201/4
f 95/199/65 96/202/66 104/220/66 103/219/65
f 96/202/66 98/207/67 106/227/67 104/220/66
f 100/212/70 95/199/65 103/219/65 108/232/70
f 98/207/67 100/212/70 108/232/70 106/227/67
f 102/215/11 110/235/11 115/248/11 107/228/11
f 107/229/2 115/249/2 113/243/2 105/223/2
f 105/224/4 113/244/4 109/233/4 101/213/4
f 101/214/1 109/234/1 110/236/1 102/216/1
f 123/271/79 131/291/80 132/294/80 124/273/79
f 125/277/81 121/267/82 129/285/82 133/296/81
f 126/279/83 134/298/84 136/303/84 128/283/83
f 122/270/85 127/282/86 135/302/86 130/289/85
f 128/284/88 136/304/89 131/292/89 123/272/88
f 121/267/82 122/270/85 130/289/85 129/285/82
f 127/282/86 125/277/81 133/296/81 135/302/86
f 124/274/90 132/293/87 134/299/87 126/278/90
f 143/317/91 141/313/91 147/325/91 148/327/91
f 137/305/92 138/307/92 146/323/92 145/321/92
f 146/323/93 123/271/79 124/273/79 145/321/93
f 145/322/94 124/274/90 126/278/90 147/326/94
f 147/325/95 126/279/83 128/283/83 148/327/95
f 148/328/96 128/284/88 123/272/88 146/324/96
f 138/308/97 143/318/97 148/328/97 146/324/97
f 141/314/98 137/306/98 145/322/98 147/326/98
