# ProBuilder 5.0.4
# https://unity3d.com/unity/features/worldbuilding/probuilder
# 4/27/2023 3:32:17 PM

mtllib ./RL-Map.mtl
o RL-Map

g PolyShape
v -30 0 -10
v -28 0 -10
v -28 0 -9
v -28 0 -8
v -29 0 -8
v -30 0 -8
v -16 0 -10
v -16 0 -9
v -15 0 -10
v -15 0 -9
v -15 0 -8
v -16 0 -8
v -16 0 4
v -28 0 4
v -15 0 4
v -15 0 5
v -16 0 5
v -28 0 5
v -29 0 4
v -30 0 4
v -29 0 5
v -30 0 5
v -14 0 -10
v -14 0 -9
v -2 0 -10
v -2 0 -9
v -2 0 -8
v -14 0 -8
v 0 0 -10
v 0 0 -8
v -1 0 -8
v -1 0 4
v -2 0 4
v 0 0 4
v 0 0 5
v -1 0 5
v -2 0 5
v -14 0 4
v -14 0 5
v -14 0 6
v -15 0 6
v -2 0 6
v -2 0 18
v -14 0 18
v -15 0 18
v -1 0 6
v 0 0 6
v 0 0 18
v -1 0 18
v 0 0 20
v -2 0 20
v -2 0 19
v -14 0 19
v -15 0 19
v -14 0 20
v -15 0 20
v -29 0 6
v -30 0 6
v -28 0 6
v -28 0 18
v -29 0 18
v -30 0 18
v -16 0 6
v -16 0 18
v -16 0 19
v -28 0 19
v -16 0 20
v -28 0 20
v -30 0 20

vt 0.9999998 -5.960464E-08
vt 0.8333331 -5.960464E-08
vt 0.8333331 0.08333328
vt 0.8333331 0.1666666
vt 0.9166664 0.1666666
vt 0.9999998 0.1666666
vt 0.5333332 -8.940697E-08
vt 0.5333332 0.08333325
vt 0.5333331 0.125
vt 0.4999998 0.125
vt 0.4999998 0.08333325
vt 0.4999998 0.1666666
vt 0.5333331 0.1666666
vt 0.5333332 0.4666666
vt 0.8333332 0.4666666
vt 0.4999998 0.4666666
vt 0.4999998 0.4999999
vt 0.5333331 0.4999999
vt 0.8333332 0.4999999
vt 0.9166665 0.4666666
vt 0.9999999 0.4666666
vt 0.9166665 0.4999999
vt 0.875 0.4999999
vt 0.875 0.4666666
vt 0.4666664 0.125
vt 0.4666665 0.08333325
vt 0.4666665 -8.940697E-08
vt 0.1666664 -8.940697E-08
vt 0.1666664 0.08333325
vt 0.1666664 0.1666666
vt 0.4666665 0.1666666
vt -2.384186E-07 -5.960464E-08
vt -2.384186E-07 0.1666666
vt 0.0833331 0.1666666
vt 0.08333309 0.4666666
vt 0.1666664 0.4666666
vt -2.384186E-07 0.4666666
vt 0.125 0.4666671
vt 0.125 0.5000004
vt 0.0833331 0.4999999
vt 0.1666664 0.4999999
vt 0.4666665 0.4666666
vt 0.4666665 0.4999999
vt 0.4666665 0.5333333
vt 0.4999998 0.5333333
vt 0.1666664 0.5333333
vt 0.1666664 0.8333334
vt 0.4666665 0.8333334
vt 0.4999998 0.8333334
vt 0.08333309 0.5333333
vt 0.125 0.5333334
vt -2.384186E-07 0.5333333
vt -2.384186E-07 0.8333334
vt 0.0833331 0.8333334
vt -2.384186E-07 1
vt 0.1666664 1
vt 0.1666664 0.9166666
vt 0.4666665 0.9166666
vt 0.4999998 0.9166666
vt 0.4666665 1
vt 0.4666664 0.875
vt 0.4999997 0.875
vt 0.9166665 0.5333333
vt 0.875 0.5333333
vt 0.8333331 0.5333333
vt 0.8333331 0.8333334
vt 0.9166665 0.8333334
vt 0.9999999 0.8333334
vt 0.9999999 0.5333333
vt 0.5333332 0.5333333
vt 0.5333331 0.8333334
vt 0.5333332 0.9166666
vt 0.8333332 0.9166666
vt 0.5333331 0.875
vt 0.5333332 1
vt 0.8333332 1
vt 0.9999998 1

vn 0 1 0

usemtl Room
f 5/5/1 1/1/1 6/6/1
f 3/3/1 2/2/1 1/1/1
f 1/1/1 5/5/1 3/3/1
f 5/5/1 4/4/1 3/3/1
f 31/34/1 26/29/1 27/30/1
f 29/32/1 25/28/1 26/29/1
f 26/29/1 31/34/1 29/32/1
f 31/34/1 30/33/1 29/32/1
f 50/55/1 48/53/1 49/54/1
f 49/54/1 43/47/1 52/57/1
f 50/55/1 49/54/1 52/57/1
f 50/55/1 52/57/1 51/56/1
f 61/67/1 62/68/1 69/77/1
f 66/73/1 60/66/1 61/67/1
f 69/77/1 66/73/1 61/67/1
f 69/77/1 68/76/1 66/73/1
f 8/8/1 7/7/1 2/2/1
f 2/2/1 3/3/1 8/8/1
f 10/11/1 9/10/1 7/9/1
f 7/9/1 8/8/1 10/11/1
f 11/12/1 10/11/1 8/8/1
f 8/8/1 12/13/1 11/12/1
f 12/13/1 8/8/1 3/3/1
f 3/3/1 4/4/1 12/13/1
f 13/14/1 12/13/1 4/4/1
f 4/4/1 14/15/1 13/14/1
f 15/16/1 11/12/1 12/13/1
f 12/13/1 13/14/1 15/16/1
f 16/17/1 15/16/1 13/14/1
f 13/14/1 17/18/1 16/17/1
f 17/18/1 13/14/1 14/15/1
f 14/15/1 18/19/1 17/18/1
f 19/20/1 5/5/1 6/6/1
f 6/6/1 20/21/1 19/20/1
f 14/15/1 4/4/1 5/5/1
f 5/5/1 19/20/1 14/15/1
f 18/19/1 14/15/1 19/20/1
f 19/20/1 21/22/1 18/19/1
f 21/22/1 19/20/1 20/24/1
f 20/24/1 22/23/1 21/22/1
f 24/26/1 23/25/1 9/10/1
f 9/10/1 10/11/1 24/26/1
f 26/29/1 25/28/1 23/27/1
f 23/27/1 24/26/1 26/29/1
f 27/30/1 26/29/1 24/26/1
f 24/26/1 28/31/1 27/30/1
f 28/31/1 24/26/1 10/11/1
f 10/11/1 11/12/1 28/31/1
f 32/35/1 31/34/1 27/30/1
f 27/30/1 33/36/1 32/35/1
f 34/37/1 30/33/1 31/34/1
f 31/34/1 32/35/1 34/37/1
f 35/39/1 34/38/1 32/35/1
f 32/35/1 36/40/1 35/39/1
f 36/40/1 32/35/1 33/36/1
f 33/36/1 37/41/1 36/40/1
f 38/42/1 28/31/1 11/12/1
f 11/12/1 15/16/1 38/42/1
f 33/36/1 27/30/1 28/31/1
f 28/31/1 38/42/1 33/36/1
f 37/41/1 33/36/1 38/42/1
f 38/42/1 39/43/1 37/41/1
f 39/43/1 38/42/1 15/16/1
f 15/16/1 16/17/1 39/43/1
f 40/44/1 39/43/1 16/17/1
f 16/17/1 41/45/1 40/44/1
f 42/46/1 37/41/1 39/43/1
f 39/43/1 40/44/1 42/46/1
f 43/47/1 42/46/1 40/44/1
f 40/44/1 44/48/1 43/47/1
f 44/48/1 40/44/1 41/45/1
f 41/45/1 45/49/1 44/48/1
f 46/50/1 36/40/1 37/41/1
f 37/41/1 42/46/1 46/50/1
f 47/51/1 35/39/1 36/40/1
f 36/40/1 46/50/1 47/51/1
f 48/53/1 47/52/1 46/50/1
f 46/50/1 49/54/1 48/53/1
f 49/54/1 46/50/1 42/46/1
f 42/46/1 43/47/1 49/54/1
f 53/58/1 44/48/1 45/49/1
f 45/49/1 54/59/1 53/58/1
f 52/57/1 43/47/1 44/48/1
f 44/48/1 53/58/1 52/57/1
f 51/56/1 52/57/1 53/58/1
f 53/58/1 55/60/1 51/56/1
f 55/61/1 53/58/1 54/59/1
f 54/59/1 56/62/1 55/61/1
f 57/63/1 21/22/1 22/23/1
f 22/23/1 58/64/1 57/63/1
f 59/65/1 18/19/1 21/22/1
f 21/22/1 57/63/1 59/65/1
f 60/66/1 59/65/1 57/63/1
f 57/63/1 61/67/1 60/66/1
f 61/67/1 57/63/1 58/69/1
f 58/69/1 62/68/1 61/67/1
f 63/70/1 17/18/1 18/19/1
f 18/19/1 59/65/1 63/70/1
f 41/45/1 16/17/1 17/18/1
f 17/18/1 63/70/1 41/45/1
f 45/49/1 41/45/1 63/70/1
f 63/70/1 64/71/1 45/49/1
f 64/71/1 63/70/1 59/65/1
f 59/65/1 60/66/1 64/71/1
f 65/72/1 64/71/1 60/66/1
f 60/66/1 66/73/1 65/72/1
f 54/59/1 45/49/1 64/71/1
f 64/71/1 65/72/1 54/59/1
f 56/62/1 54/59/1 65/72/1
f 65/72/1 67/74/1 56/62/1
f 67/75/1 65/72/1 66/73/1
f 66/73/1 68/76/1 67/75/1

